<svg width="19" height="18" viewBox="0 0 19 18" fill="none" xmlns="http://www.w3.org/2000/svg">
<path d="M10.7251 9.133C10.6899 9.09783 10.67 9.05006 10.67 9.00025C10.67 8.95044 10.6899 8.90268 10.7251 8.8675L17.6724 1.921C18.1116 1.48111 18.1111 0.768399 17.6712 0.329126C17.2313 -0.110148 16.5186 -0.109644 16.0794 0.330251L9.13287 7.27375C9.09769 7.30902 9.04993 7.32884 9.00012 7.32884C8.95031 7.32884 8.90255 7.30902 8.86737 7.27375L1.92087 0.330251C1.4816 -0.10923 0.769227 -0.109398 0.329746 0.329876C-0.109735 0.769149 -0.109903 1.48152 0.329371 1.921L7.27512 8.8675C7.31039 8.90268 7.33021 8.95044 7.33021 9.00025C7.33021 9.05006 7.31039 9.09783 7.27512 9.133L0.329371 16.0803C0.0452108 16.3645 -0.0656949 16.7788 0.038431 17.1671C0.142557 17.5553 0.445895 17.8585 0.834181 17.9625C1.22247 18.0664 1.63671 17.9553 1.92087 17.671L8.86737 10.7238C8.90255 10.6885 8.95031 10.6687 9.00012 10.6687C9.04993 10.6687 9.09769 10.6885 9.13287 10.7238L16.0794 17.671C16.5186 18.1105 17.231 18.1106 17.6705 17.6714C18.11 17.2321 18.1101 16.5197 17.6709 16.0803L10.7251 9.133Z" fill="#5DB075"/>
</svg>
