<svg width="103" height="103" viewBox="0 0 103 103" fill="none" xmlns="http://www.w3.org/2000/svg">
<path d="M70.8125 25.75V8.46531L88.3869 28.9688H74.0312C73.1776 28.9688 72.3589 28.6296 71.7552 28.026C71.1516 27.4224 70.8125 26.6037 70.8125 25.75ZM74.0312 35.4062C71.4703 35.4062 69.0141 34.3889 67.2032 32.578C65.3923 30.7671 64.375 28.311 64.375 25.75V6.4375H22.5312C19.9703 6.4375 17.5141 7.45485 15.7033 9.26575C13.8924 11.0766 12.875 13.5328 12.875 16.0938V86.9062C12.875 89.4672 13.8924 91.9234 15.7033 93.7343C17.5141 95.5452 19.9703 96.5625 22.5312 96.5625H80.4688C83.0297 96.5625 85.4859 95.5452 87.2968 93.7343C89.1077 91.9234 90.125 89.4672 90.125 86.9062V35.4062H74.0312Z" fill="#5DB075"/>
</svg>
