<?xml version="1.0" encoding="iso-8859-1"?>
<!-- Generator: Adobe Illustrator 17.1.0, SVG Export Plug-In . SVG Version: 6.00 Build 0)  -->
<!DOCTYPE svg PUBLIC "-//W3C//DTD SVG 1.1//EN" "http://www.w3.org/Graphics/SVG/1.1/DTD/svg11.dtd">
<svg version="1.1" id="Capa_1" xmlns="http://www.w3.org/2000/svg" xmlns:xlink="http://www.w3.org/1999/xlink" x="0px" y="0px"
	 viewBox="0 0 378.756 378.756" style="enable-background:new 0 0 378.756 378.756;" xml:space="preserve">
<g>
	<path d="M343.169,101.357L220.003,1.67c-2.247-1.818-5.34-2.184-7.948-0.938c-2.609,1.244-4.271,3.878-4.271,6.769v69.063
		c0,4.143,3.357,7.5,7.5,7.5s7.5-3.357,7.5-7.5V23.219l103.745,83.969l-103.745,83.969v-53.344c0-4.143-3.357-7.5-7.5-7.5H93.409
		v-46.25h65.968c4.142,0,7.5-3.357,7.5-7.5s-3.358-7.5-7.5-7.5H85.909c-4.142,0-7.5,3.357-7.5,7.5v61.25c0,4.143,3.358,7.5,7.5,7.5
		h121.875v61.563c0,2.891,1.661,5.524,4.271,6.769c1.028,0.491,2.131,0.731,3.229,0.731c1.687,0,3.358-0.568,4.72-1.67
		l123.166-99.687c1.759-1.424,2.781-3.566,2.781-5.83S344.928,102.781,343.169,101.357z"/>
	<path d="M292.847,233.443h-91.469c-4.143,0-7.5,3.357-7.5,7.5s3.357,7.5,7.5,7.5h83.969v46.25H163.472c-4.142,0-7.5,3.357-7.5,7.5
		v53.344L52.227,271.568L155.972,187.6v53.344c0,4.143,3.358,7.5,7.5,7.5s7.5-3.357,7.5-7.5v-69.063
		c0-2.891-1.661-5.524-4.271-6.769c-2.608-1.246-5.7-0.88-7.948,0.938L35.587,265.738c-1.76,1.424-2.782,3.566-2.782,5.83
		s1.022,4.406,2.782,5.83l123.166,99.688c1.361,1.102,3.033,1.67,4.719,1.67c1.097,0,2.201-0.24,3.229-0.731
		c2.609-1.244,4.271-3.878,4.271-6.769v-61.563h121.875c4.143,0,7.5-3.357,7.5-7.5v-61.25
		C300.347,236.801,296.989,233.443,292.847,233.443z"/>
</g>
<g>
</g>
<g>
</g>
<g>
</g>
<g>
</g>
<g>
</g>
<g>
</g>
<g>
</g>
<g>
</g>
<g>
</g>
<g>
</g>
<g>
</g>
<g>
</g>
<g>
</g>
<g>
</g>
<g>
</g>
</svg>
